<svg xmlns="http://www.w3.org/2000/svg" viewBox="0 0 556.19 358.86"><title>bottom</title><path d="M1068.69,693.5c-12-41.29-82.75-73-168.19-73s-156.16,31.71-168.19,73Z" transform="translate(-732.31 -335.14)" style="fill:#b2bdc5"/><path d="M1288.5,347a217,217,0,0,0-44-4.51c-51,0-90.84,9.12-134.35,52-45.65,45-114.65,201-114.65,201-13.47,32.33-42.37,55.89-49.38,98H1288.5Z" transform="translate(-732.31 -335.14)" style="fill:#f4e5e0"/><path d="M1288.5,335.14C1211.79,387.84,1141,497.42,1141,552c0,29.68,20.11,81.19,52.5,89.5,29.51,7.57,62.4,6.08,95,4.56Z" transform="translate(-732.31 -335.14)" style="fill:#c7998c"/><path d="M1090.1,668.41a51.25,51.25,0,0,0-19.27,4.31c-12.45,5.24-23.14,13.69-34.25,21.28h6.57A299.26,299.26,0,0,1,1070,680c7.22-3.29,14-6.53,22-6,11.2.74,22.84,3.55,33.66,6.17a139.81,139.81,0,0,0,65.49.09c16.49-4,32.63-11.86,44.73-23.92,11-11,21.51-29.78,16-45.79-2.36-6.9-8.52-12-16-11.64-1.92.1-1.94,3.1,0,3,14.8-.82,13.89,16.84,11.09,27.09-2.45,9-5.84,17.57-12.26,24.22-12.72,13.19-32,18-49.74,21.78-22.83,4.85-45,6.81-67.28-.15C1108.67,672,1099.74,668.33,1090.1,668.41Z" transform="translate(-732.31 -335.14)" style="fill:#fff"/><path d="M934,694h3.92c12.64-15.24,21.7-32.4,32.71-48.73,5.93-8.8,13-16.76,22.21-22.15,10.35-6,22.09-9.84,33.17-14.28L1060.47,595c10.59-4.25,19.92-7.21,31.53-5,9.71,1.83,25.18,7.66,25.4,19.21.27,14.16-17.89,16-28.06,16.38-22.13.91-44.76,3.69-65.91,10.54-18.31,5.93-36,16.53-44.77,34.39-3.33,6.81-5.42,15.65-4.45,23.48h2.87c-.79-5.85.42-12.33,2.27-17.48,3.56-9.88,10.55-18.41,18.9-24.66,17.44-13,40.37-17.6,61.47-20.65,11.93-1.73,24.3-.25,36.28-1.21a29.65,29.65,0,0,0,20.91-11c11.59-14.73-7.33-29.33-20.44-32.64-9.11-2.29-18.12-1.11-26.9,1.93-11,3.81-24.75,4.36-35.57,8.7-11,4.4-20.08,10.48-31,15-8.52,3.53-15.57,10.11-22.36,16.46-13.82,12.92-21.48,31-32,46.43A227.7,227.7,0,0,1,934,694Z" transform="translate(-732.31 -335.14)" style="fill:#fff"/><path d="M852.16,694q8.19-7.77,16.59-15.34c16.36-14.72,33.11-30.38,52.66-40.81a86.84,86.84,0,0,1,14.89-6.36c4.29-1.36,15.63-5.66,18.93-1.16,3.78,5.19-.85,13.68-4.46,17.49-3.83,4.06-9,6.63-13.94,9.07C917.61,666.36,899.16,676,883,690c-1.44,1.24-2.87,2.58-4.29,4h9.37c3.47-2.88,6.94-5.61,10.17-8.21a235.87,235.87,0,0,1,27.14-19.47c8.44-5,18.34-8.24,25.79-14.77,5.68-5,10.17-13.49,7.34-21.11s-12-3.92-18.25-3.18C919.36,629.73,903.76,641,889,654c-15.21,13.38-28.8,26.64-41.79,40Z" transform="translate(-732.31 -335.14)" style="fill:#fff"/></svg>