<svg xmlns="http://www.w3.org/2000/svg" viewBox="0 0 525 918.23"><title>top</title><path d="M1605.18,110H1172V754.39c102.88-15.85,310.92-145,390.73-196.59C1630.27,514.13,1697,452.29,1697,362.88,1697,271.32,1658.17,184.43,1605.18,110Z" transform="translate(-1172 -110)" style="fill:#c7998c"/><g style="opacity:0.92"><path d="M1172,330.69v697.54c24.87-20.72,49-42.72,71.46-61.88C1296,921.56,1348,858.14,1348,766.43,1348,619.66,1266.22,429.3,1172,330.69Z" transform="translate(-1172 -110)" style="fill:#728695"/></g><path d="M1598,110c-29.9,57.4-58.38,117.71-120.28,147.28-31.21,14.91-68,9.06-99.24,23.84-26.62,12.62-41.75,42.41-51.12,68.82-10.53,29.69-23.55,63.27-29,94-3.32,18.58,2.22,35.68.27,54.42-1.84,17.82-2.57,35.4-10.18,52.14-6.61,14.55-19.37,29.07-24.8,44.12a320,320,0,0,0-13.42,49.09c-3,16.23-.78,31.33.58,47.83,1.31,16,13.57,32.49,10.9,48.32-2.76,16.31-22.1,16.3-30,3.54-5.55-9-4.78-20.74-4.59-30.9.32-17.25.75-34.5,1.61-51.74,1.74-34.68,5.22-69.5,13.84-103.38,8.1-31.83,33.32-64.49,35.16-97.44,1.81-32.44-17.57-59-35.07-85.61-9.93-15.11-20.05-31.19-18.58-50,1.28-16.14,10.09-31.07,21.47-42.79,24.67-25.38,61.58-34.44,94-46.56,26.47-9.9,60-24.4,73-50.79,11.76-23.92-9.25-41.49-33.52-38-15.75,2.24-31.28,10.29-45.78,16.4a476.12,476.12,0,0,0-46.19,22c-28.13,15.63-56.57,34.89-74.86,61-19.11,27.23-28.22,59.35-38.67,90.36-.46,1.38-1,2.79-1.45,4.22V368c4.6-17.5,9.44-35,16.08-52.09,12.9-33.34,29.22-66.64,55.82-92.12,25.1-24.05,56.88-40.05,88.85-53.71,16.79-7.18,37.59-19.26,56.28-17.65,12.5,1.08,19.84,8.46,16.68,21.15-2.48,10-7.75,20-15.58,26.63-27.11,23.06-63.42,31.16-96,44.07-28.26,11.21-61.72,25.56-75.67,52.94-14.07,27.63,1,54.38,16.81,78.62,20.57,31.49,35.46,66,26,104.29-4.11,16.65-11.83,32.28-17.44,48.49a354.29,354.29,0,0,0-12.51,46.89c-6.74,33.94-9.2,68.42-10.39,102.82-.56,16.08-1.92,32.6-.73,48.63.94,12.77,5.59,25.76,18.53,31.18,8.59,3.59,18.59,2.12,24.74-5.2,8-9.54,11.22-24.71,7.5-35.25-6.38-18.09-14.74-31.66-12.3-51a416.71,416.71,0,0,1,10.8-55.45c8.46-31.61,30.13-58,34-90.72,4.38-37,5.33-69.25,12.52-105.9,6-30.71,14.94-68.72,34.48-94.87,23.31-31.18,62.3-35.32,97.74-44.81,66.81-17.89,108.49-69.7,140.74-126.21,7.19-12.61,11.23-25.82,17-38.82Z" transform="translate(-1172 -110)" style="fill:#f2f2f2"/></svg>